<svg width="24" height="24" viewBox="0 0 24 24" fill="none" xmlns="http://www.w3.org/2000/svg">
<path d="M12 22C12 22 4 16 4 10C4 5 8 2 12 2C16 2 20 5 20 10C20 16 12 22 12 22ZM12 13C12.7956 13 13.5587 12.6839 14.1213 12.1213C14.6839 11.5587 15 10.7956 15 10C15 9.20435 14.6839 8.44129 14.1213 7.87868C13.5587 7.31607 12.7956 7 12 7C11.2044 7 10.4413 7.31607 9.87868 7.87868C9.31607 8.44129 9 9.20435 9 10C9 10.7956 9.31607 11.5587 9.87868 12.1213C10.4413 12.6839 11.2044 13 12 13Z" stroke="white" stroke-width="2"/>
</svg>
